<mxfile host="app.diagrams.net" modified="2024-01-29T06:52:21.649Z" agent="Mozilla/5.0 (Windows NT 10.0; Win64; x64) AppleWebKit/537.36 (KHTML, like Gecko) Chrome/120.0.0.0 Safari/537.36" etag="P7ydjlpEw97FNOdz0fo6" version="23.0.2" type="github">
  <diagram name="Halaman-1" id="xynaZE-OYRN-TS3AgV_L">
    <mxGraphModel dx="1120" dy="1568" grid="1" gridSize="10" guides="1" tooltips="1" connect="1" arrows="1" fold="1" page="1" pageScale="1" pageWidth="850" pageHeight="1100" math="0" shadow="0">
      <root>
        <mxCell id="0" />
        <mxCell id="1" parent="0" />
        <mxCell id="pM9KCdDC88xTNc4mm5i7-4" value="" style="rounded=0;whiteSpace=wrap;html=1;" parent="1" vertex="1">
          <mxGeometry x="75" y="-180" width="700" height="590" as="geometry" />
        </mxCell>
        <mxCell id="kF74PteBnKLGU5JoplP5-8" style="edgeStyle=orthogonalEdgeStyle;rounded=0;orthogonalLoop=1;jettySize=auto;html=1;exitX=1;exitY=0.5;exitDx=0;exitDy=0;entryX=0;entryY=0.5;entryDx=0;entryDy=0;" parent="1" source="pM9KCdDC88xTNc4mm5i7-5" target="pM9KCdDC88xTNc4mm5i7-8" edge="1">
          <mxGeometry relative="1" as="geometry" />
        </mxCell>
        <mxCell id="pM9KCdDC88xTNc4mm5i7-5" value="User" style="rounded=1;whiteSpace=wrap;html=1;fontSize=12;" parent="1" vertex="1">
          <mxGeometry x="90" y="-47" width="100" height="47" as="geometry" />
        </mxCell>
        <mxCell id="pM9KCdDC88xTNc4mm5i7-11" style="edgeStyle=orthogonalEdgeStyle;rounded=0;orthogonalLoop=1;jettySize=auto;html=1;exitX=1;exitY=0.5;exitDx=0;exitDy=0;entryX=0;entryY=0.5;entryDx=0;entryDy=0;" parent="1" source="pM9KCdDC88xTNc4mm5i7-8" target="pM9KCdDC88xTNc4mm5i7-10" edge="1">
          <mxGeometry relative="1" as="geometry" />
        </mxCell>
        <mxCell id="pM9KCdDC88xTNc4mm5i7-8" value="Isi Form&amp;nbsp;&lt;br&gt;Pengunjung" style="rounded=1;whiteSpace=wrap;html=1;fontSize=14;" parent="1" vertex="1">
          <mxGeometry x="230" y="-47" width="100" height="47" as="geometry" />
        </mxCell>
        <mxCell id="pM9KCdDC88xTNc4mm5i7-13" style="edgeStyle=orthogonalEdgeStyle;rounded=0;orthogonalLoop=1;jettySize=auto;html=1;exitX=1;exitY=0.5;exitDx=0;exitDy=0;entryX=0;entryY=0.5;entryDx=0;entryDy=0;" parent="1" source="pM9KCdDC88xTNc4mm5i7-10" target="pM9KCdDC88xTNc4mm5i7-12" edge="1">
          <mxGeometry relative="1" as="geometry" />
        </mxCell>
        <mxCell id="pM9KCdDC88xTNc4mm5i7-10" value="Kirim" style="rounded=1;whiteSpace=wrap;html=1;fontSize=14;" parent="1" vertex="1">
          <mxGeometry x="400" y="-47" width="100" height="47" as="geometry" />
        </mxCell>
        <mxCell id="kF74PteBnKLGU5JoplP5-11" style="edgeStyle=orthogonalEdgeStyle;rounded=0;orthogonalLoop=1;jettySize=auto;html=1;exitX=1;exitY=0.5;exitDx=0;exitDy=0;entryX=0.5;entryY=0;entryDx=0;entryDy=0;" parent="1" source="pM9KCdDC88xTNc4mm5i7-12" target="pM9KCdDC88xTNc4mm5i7-14" edge="1">
          <mxGeometry relative="1" as="geometry" />
        </mxCell>
        <mxCell id="pM9KCdDC88xTNc4mm5i7-12" value="Daftar Pengunjung" style="rounded=1;whiteSpace=wrap;html=1;fontSize=14;" parent="1" vertex="1">
          <mxGeometry x="560" y="-47" width="100" height="47" as="geometry" />
        </mxCell>
        <mxCell id="kF74PteBnKLGU5JoplP5-12" style="edgeStyle=orthogonalEdgeStyle;rounded=0;orthogonalLoop=1;jettySize=auto;html=1;exitX=0;exitY=0.5;exitDx=0;exitDy=0;entryX=1;entryY=0.5;entryDx=0;entryDy=0;" parent="1" source="pM9KCdDC88xTNc4mm5i7-14" target="pM9KCdDC88xTNc4mm5i7-16" edge="1">
          <mxGeometry relative="1" as="geometry" />
        </mxCell>
        <mxCell id="kF74PteBnKLGU5JoplP5-22" style="edgeStyle=orthogonalEdgeStyle;rounded=0;orthogonalLoop=1;jettySize=auto;html=1;exitX=0;exitY=1;exitDx=0;exitDy=0;entryX=0.5;entryY=0;entryDx=0;entryDy=0;" parent="1" source="pM9KCdDC88xTNc4mm5i7-14" target="kF74PteBnKLGU5JoplP5-19" edge="1">
          <mxGeometry relative="1" as="geometry" />
        </mxCell>
        <mxCell id="kF74PteBnKLGU5JoplP5-25" style="edgeStyle=orthogonalEdgeStyle;rounded=0;orthogonalLoop=1;jettySize=auto;html=1;exitX=0.5;exitY=1;exitDx=0;exitDy=0;entryX=0.5;entryY=0;entryDx=0;entryDy=0;" parent="1" source="pM9KCdDC88xTNc4mm5i7-14" target="kF74PteBnKLGU5JoplP5-24" edge="1">
          <mxGeometry relative="1" as="geometry" />
        </mxCell>
        <mxCell id="pM9KCdDC88xTNc4mm5i7-14" value="Mencari Buku" style="rounded=1;whiteSpace=wrap;html=1;fontSize=14;" parent="1" vertex="1">
          <mxGeometry x="640" y="30" width="100" height="47" as="geometry" />
        </mxCell>
        <mxCell id="kF74PteBnKLGU5JoplP5-28" style="edgeStyle=orthogonalEdgeStyle;rounded=0;orthogonalLoop=1;jettySize=auto;html=1;exitX=0;exitY=0.5;exitDx=0;exitDy=0;entryX=0.5;entryY=0;entryDx=0;entryDy=0;" parent="1" source="pM9KCdDC88xTNc4mm5i7-16" target="pM9KCdDC88xTNc4mm5i7-21" edge="1">
          <mxGeometry relative="1" as="geometry" />
        </mxCell>
        <mxCell id="pM9KCdDC88xTNc4mm5i7-16" value="Mencari Buku dengan kata kunci Judul/penerbit" style="rounded=1;whiteSpace=wrap;html=1;fontSize=14;" parent="1" vertex="1">
          <mxGeometry x="400" y="20.25" width="140" height="66.5" as="geometry" />
        </mxCell>
        <mxCell id="kF74PteBnKLGU5JoplP5-27" style="edgeStyle=orthogonalEdgeStyle;rounded=0;orthogonalLoop=1;jettySize=auto;html=1;exitX=0;exitY=0.5;exitDx=0;exitDy=0;entryX=0.5;entryY=0;entryDx=0;entryDy=0;" parent="1" source="pM9KCdDC88xTNc4mm5i7-21" target="pM9KCdDC88xTNc4mm5i7-24" edge="1">
          <mxGeometry relative="1" as="geometry" />
        </mxCell>
        <mxCell id="pM9KCdDC88xTNc4mm5i7-21" value="Hasil&amp;nbsp;&lt;br&gt;Pencarian" style="rounded=1;whiteSpace=wrap;html=1;fontSize=14;" parent="1" vertex="1">
          <mxGeometry x="250" y="96.5" width="100" height="47" as="geometry" />
        </mxCell>
        <mxCell id="pM9KCdDC88xTNc4mm5i7-24" value="RIncian Buku" style="rounded=1;whiteSpace=wrap;html=1;fontSize=14;" parent="1" vertex="1">
          <mxGeometry x="90" y="140" width="100" height="47" as="geometry" />
        </mxCell>
        <mxCell id="kF74PteBnKLGU5JoplP5-29" style="edgeStyle=orthogonalEdgeStyle;rounded=0;orthogonalLoop=1;jettySize=auto;html=1;exitX=0;exitY=0.5;exitDx=0;exitDy=0;entryX=1;entryY=0.5;entryDx=0;entryDy=0;" parent="1" source="kF74PteBnKLGU5JoplP5-19" target="pM9KCdDC88xTNc4mm5i7-21" edge="1">
          <mxGeometry relative="1" as="geometry" />
        </mxCell>
        <mxCell id="kF74PteBnKLGU5JoplP5-19" value="Ada" style="rounded=1;whiteSpace=wrap;html=1;fontSize=14;" parent="1" vertex="1">
          <mxGeometry x="530" y="143.5" width="85.11" height="40" as="geometry" />
        </mxCell>
        <mxCell id="kF74PteBnKLGU5JoplP5-26" style="edgeStyle=orthogonalEdgeStyle;rounded=0;orthogonalLoop=1;jettySize=auto;html=1;exitX=0.75;exitY=0;exitDx=0;exitDy=0;entryX=0.75;entryY=1;entryDx=0;entryDy=0;" parent="1" source="kF74PteBnKLGU5JoplP5-24" target="pM9KCdDC88xTNc4mm5i7-14" edge="1">
          <mxGeometry relative="1" as="geometry" />
        </mxCell>
        <mxCell id="kF74PteBnKLGU5JoplP5-24" value="Tidak Ada" style="rounded=1;whiteSpace=wrap;html=1;fontSize=14;" parent="1" vertex="1">
          <mxGeometry x="640" y="140" width="100" height="47" as="geometry" />
        </mxCell>
      </root>
    </mxGraphModel>
  </diagram>
</mxfile>
